<?xml version="1.0" encoding="UTF-8" standalone="no"?>
<!-- Created with Inkscape (http://www.inkscape.org/) -->

<svg
   xmlns:dc="http://purl.org/dc/elements/1.1/"
   xmlns:cc="http://creativecommons.org/ns#"
   xmlns:rdf="http://www.w3.org/1999/02/22-rdf-syntax-ns#"
   xmlns:svg="http://www.w3.org/2000/svg"
   xmlns="http://www.w3.org/2000/svg"
   xmlns:sodipodi="http://sodipodi.sourceforge.net/DTD/sodipodi-0.dtd"
   xmlns:inkscape="http://www.inkscape.org/namespaces/inkscape"
   width="210mm"
   height="297mm"
   viewBox="0 0 210 297"
   version="1.1"
   id="svg884"
   inkscape:version="0.92.2 (30a58d1, 2017-08-07)"
   sodipodi:docname="logo-nou-soulmatters.svg"
   inkscape:export-filename="/home/smd/Desktop/logo-soulmatters.png"
   inkscape:export-xdpi="83.089844"
   inkscape:export-ydpi="83.089844">
  <defs
     id="defs878" />
  <sodipodi:namedview
     id="base"
     pagecolor="#ffffff"
     bordercolor="#666666"
     borderopacity="1.0"
     inkscape:pageopacity="0.0"
     inkscape:pageshadow="2"
     inkscape:zoom="0.49497475"
     inkscape:cx="-226.27821"
     inkscape:cy="556.67713"
     inkscape:document-units="mm"
     inkscape:current-layer="layer1"
     showgrid="false"
     inkscape:window-width="1920"
     inkscape:window-height="995"
     inkscape:window-x="0"
     inkscape:window-y="24"
     inkscape:window-maximized="1"
     showguides="true"
     inkscape:guide-bbox="true">
    <sodipodi:guide
       position="109.58051,-36.348656"
       orientation="0,1"
       id="guide1543"
       inkscape:locked="false" />
    <sodipodi:guide
       position="265.13137,303.61818"
       orientation="0,1"
       id="guide829"
       inkscape:locked="false" />
  </sodipodi:namedview>
  <metadata
     id="metadata881">
    <rdf:RDF>
      <cc:Work
         rdf:about="">
        <dc:format>image/svg+xml</dc:format>
        <dc:type
           rdf:resource="http://purl.org/dc/dcmitype/StillImage" />
        <dc:title />
      </cc:Work>
    </rdf:RDF>
  </metadata>
  <g
     inkscape:label="Layer 1"
     inkscape:groupmode="layer"
     id="layer1">
    <rect
       style="opacity:1;fill:#ffffff;fill-opacity:0.98255813;stroke:#ffffff;stroke-width:2.17093158;stroke-miterlimit:4;stroke-dasharray:none;stroke-dashoffset:0;stroke-opacity:1;paint-order:normal"
       id="rect832"
       width="319.34805"
       height="281.11624"
       x="-45.664059"
       y="7.8143749"
       rx="0.27759179"
       ry="8.1564159"
       inkscape:export-xdpi="83"
       inkscape:export-ydpi="83" />
    <path
       style="opacity:1;fill:#d3ac8b;fill-opacity:1;stroke:#ffffff;stroke-width:0.51604187;stroke-miterlimit:4;stroke-dasharray:none;stroke-dashoffset:0;stroke-opacity:1;paint-order:normal"
       id="path925"
       sodipodi:type="arc"
       sodipodi:cx="116.74258"
       sodipodi:cy="54.998779"
       sodipodi:rx="14.351169"
       sodipodi:ry="13.880029"
       sodipodi:start="6.1821307"
       sodipodi:end="6.1786885"
       sodipodi:open="true"
       d="m 131.02053,53.598525 a 14.351169,13.880029 0 0 1 -12.81788,15.208262 14.351169,13.880029 0 0 1 -15.73551,-12.383988 14.351169,13.880029 0 0 1 12.7908,-15.229576 14.351169,13.880029 0 0 1 15.75752,12.357776"
       transform="matrix(0.99355458,0.11335472,-0.13123027,0.99135191,0,0)"
       inkscape:export-xdpi="83"
       inkscape:export-ydpi="83" />
    <ellipse
       style="opacity:1;fill:#512a09;fill-opacity:1;stroke:#ffffff;stroke-width:0.514;stroke-miterlimit:4;stroke-dasharray:none;stroke-dashoffset:0;stroke-opacity:1;paint-order:normal"
       id="path927"
       transform="rotate(7.0061188)"
       cx="116.08415"
       cy="54.111568"
       rx="8.5999184"
       ry="8.3164053"
       inkscape:export-xdpi="83"
       inkscape:export-ydpi="83" />
    <path
       style="opacity:1;fill:#d3ac8b;fill-opacity:1;stroke:#ffffff;stroke-width:0.516;stroke-miterlimit:4;stroke-dasharray:none;stroke-dashoffset:0;stroke-opacity:1;paint-order:normal"
       id="path925-3"
       sodipodi:type="arc"
       sodipodi:cx="77.404251"
       sodipodi:cy="54.759899"
       sodipodi:rx="13.463599"
       sodipodi:ry="14.180912"
       sodipodi:start="6.1821307"
       sodipodi:end="6.131202"
       sodipodi:open="true"
       d="M 90.799163,53.32929 A 13.463599,14.180912 0 0 1 78.932927,68.849107 13.463599,14.180912 0 0 1 64.048264,56.549271 13.463599,14.180912 0 0 1 75.535483,40.716255 13.463599,14.180912 0 0 1 90.712652,52.612925"
       transform="rotate(7.0061188)"
       inkscape:export-xdpi="83"
       inkscape:export-ydpi="83" />
    <path
       style="opacity:1;fill:#512a09;fill-opacity:1;stroke:#ffffff;stroke-width:0.514;stroke-miterlimit:4;stroke-dasharray:none;stroke-dashoffset:0;stroke-opacity:1;paint-order:normal"
       id="path927-6"
       sodipodi:type="arc"
       sodipodi:cx="77.767746"
       sodipodi:cy="54.815441"
       sodipodi:rx="8.5396166"
       sodipodi:ry="8.2218199"
       sodipodi:start="6.1821307"
       sodipodi:end="6.131202"
       sodipodi:open="true"
       d="m 86.263796,53.986002 a 8.5396166,8.2218199 0 0 1 -7.52645,8.998091 8.5396166,8.2218199 0 0 1 -9.440961,-7.131209 8.5396166,8.2218199 0 0 1 7.286049,-9.179677 8.5396166,8.2218199 0 0 1 9.62649,6.89746"
       transform="rotate(7.0061188)"
       inkscape:export-xdpi="83"
       inkscape:export-ydpi="83" />
    <path
       style="fill:#512a09;stroke:#f4ffff;stroke-width:0.565;stroke-linecap:butt;stroke-linejoin:miter;stroke-miterlimit:4;stroke-dasharray:none;stroke-opacity:1;fill-opacity:1"
       d="M 84.176357,93.268643 C 72.750245,76.095174 99.286302,44.573926 116.89628,51.874614 c 12.82533,5.162694 12.43646,17.655632 4.63835,28.808296 -2.77741,3.62705 -6.3118,6.286807 -9.87334,9.068763 l -6.22665,4.18545 -6.694018,4.88965 -4.63384,3.619537 -6.546535,4.97312 -7.308862,5.51038 c -6.632212,5.78697 -9.952632,9.71397 -10.933728,17.69731 -0.232178,4.98267 0.466954,11.11403 1.62444,14.67079 1.396894,6.10987 3.628678,9.81147 6.547546,14.89498 5.74741,7.57227 9.777297,9.68805 17.134299,14.60739 -5.15133,22.18579 42.389708,16.28603 25.716758,48.73165 -3.65268,8.34568 -6.30195,14.38688 -8.33233,18.97175 -7.31398,16.51597 -6.59711,14.13403 -15.824468,32.50052 -5.76583,17.33436 21.296208,-15.70293 21.296208,-15.70293 -7.37795,25.41723 11.17241,-8.00941 13.00631,-9.90388 37.21034,-55.584 48.01281,-85.34233 36.51282,-122.33943 -5.83329,-15.24753 -14.27825,-18.46611 -17.37979,-36.248767 5.20532,-11.879426 0.011,-26.123456 -3.65617,-33.122035 -3.40747,-6.502953 -3.69464,-5.577095 -7.29631,-9.936271 2.16145,-0.287688 5.09084,-2.160585 5.27823,-7.625698 0.41951,-10.446964 4.11742,-3.688717 8.38247,-10.549742 0,0 1.99264,-0.566024 4.04948,-2.481531 0.94489,-0.879958 2.64211,-3.708906 2.64211,-3.708906 2.58203,-3.45437 -14.29314,2.963692 -29.51761,8.033607 C 113.80366,30.881787 87.121382,24.682639 68.123349,31.847563 57.328986,25.125701 53.448939,15.437493 49.631272,14.988169 v 0 c 0.01765,4.75331 3.21193,8.511688 3.21193,8.511688 -1.055598,4.917744 4.387921,7.870846 3.348486,10.352256 -1.728038,4.125288 -0.562724,5.817617 -0.562724,5.817617 3.599647,7.364845 13.285729,9.979461 14.757723,15.666043 4.463328,17.599394 -0.729262,28.659874 13.78967,37.93287 z"
       id="path919"
       inkscape:connector-curvature="0"
       sodipodi:nodetypes="ccccccccccccccscscccsccssccccccsscc"
       inkscape:export-xdpi="83"
       inkscape:export-ydpi="83" />
  </g>
</svg>
